<svg width="26" height="27" viewBox="0 0 26 27" fill="none" xmlns="http://www.w3.org/2000/svg">
<path d="M12.1724 1V18.5M12.1724 1V1C11.9204 1 11.6915 1.14715 11.5869 1.37648L1.17173 24.2097C1.05856 24.4578 1 24.7273 1 25V25M12.1724 1V1C12.4269 1 12.6604 1.14099 12.7789 1.36617L24.8073 24.22C24.9339 24.4605 25 24.7282 25 25V25M1 25L12.1724 18.5M1 25V25C1 25.2285 1.18526 25.4138 1.41379 25.4138H24.5862C24.8147 25.4138 25 25.2285 25 25V25M25 25L12.1724 18.5" stroke="white" stroke-width="2"/>
</svg>
