<svg width="26" height="24" viewBox="0 0 26 24" fill="none" xmlns="http://www.w3.org/2000/svg">
<path d="M1 5.33333H20.3333M1 5.33333V7.66667V20.6667C1 21.7712 1.89543 22.6667 3 22.6667H18.6667H20.3333M1 5.33333V5.33333C1 5.12085 1.0888 4.91803 1.24493 4.77391L4.75874 1.53039C5.12818 1.18937 5.61252 1 6.1153 1H24C24.5523 1 25 1.44772 25 2V2M20.3333 22.6667V5.33333M20.3333 22.6667V22.6667C20.5477 22.6667 20.7541 22.5859 20.9116 22.4406L24.3566 19.2606C24.7667 18.882 25 18.3492 25 17.791V2M20.3333 5.33333L25 2" stroke="white" stroke-width="2"/>
<path d="M3.66675 10.9999V9.99988C3.66675 9.44759 4.11446 8.99988 4.66675 8.99988H6.00008C6.55237 8.99988 7.00008 9.44759 7.00008 9.99988V10.9999C7.00008 11.5522 6.55237 11.9999 6.00008 11.9999H4.66675C4.11446 11.9999 3.66675 11.5522 3.66675 10.9999Z" stroke="white"/>
<path d="M5.3335 9.66646L5.76303 10.3824C6.06812 10.8908 6.74614 11.0236 7.22052 10.6679L10.3335 8.33313" stroke="white"/>
<path d="M3.66675 15.6669H13.6668M3.66675 17.6669H9.33342M3.66675 19.6669H11.0001" stroke="white"/>
</svg>
