<svg width="26" height="20" viewBox="0 0 26 20" fill="none" xmlns="http://www.w3.org/2000/svg">
<path d="M1 18.7273V6.72727L5.90909 1H14.3636H15.7273H17.0109H25V14.3636L19.8182 18.7273H1Z" fill="none"/>
<path d="M1 6.72727V18.7273H19.8182M1 6.72727L5.90909 1H14.3636M1 6.72727H9.45455M19.8182 18.7273V6.72727M19.8182 18.7273L25 14.3636V1M19.8182 6.72727L25 1M19.8182 6.72727H12.1818M25 1H17.0109M12.1818 6.72727V11.3636L11.6364 11.0909L11.0909 11.3636L10.5455 11.0909L10.2727 11.3636L9.72727 11.0909L9.45455 11.3636V6.72727M12.1818 6.72727H9.45455M12.1818 6.72727L17.0109 1M9.45455 6.72727H10.8182L15.7273 1H14.3636M9.45455 6.72727L14.3636 1M14.3636 1H17.0109" stroke="white"/>
<path d="M7.95166 13.5134H14.7698M7.95166 14.8771H11.7698M7.95166 16.2407H12.588" stroke="white"/>
<path d="M10.3851 6.5615L14.9038 1L15.9466 1.34759L11.7755 6.5615H10.3851Z" fill="white"/>
<path d="M9.68994 10.7326V6.90909H11.7755V10.7326H9.68994Z" fill="white"/>
<path d="M10.3851 6.5615L14.9038 1L15.9466 1.34759L11.7755 6.5615H10.3851Z" stroke="white"/>
<path d="M9.68994 10.7326V6.90909H11.7755V10.7326H9.68994Z" stroke="white"/>
</svg>
