<svg width="41" height="21" viewBox="0 0 41 21" fill="none" xmlns="http://www.w3.org/2000/svg">
<path d="M28.6923 16.3846H12.7949M28.6923 16.3846V7.15385M28.6923 16.3846H30.2308M6.64103 16.3846H3C1.89543 16.3846 1 15.4892 1 14.3846V3C1 1.89543 1.89543 1 3 1H26.6923C27.7969 1 28.6923 1.89543 28.6923 3V7.15385M6.64103 16.3846L8.05385 18.5038C8.84549 19.6913 10.5904 19.6913 11.382 18.5039L12.7949 16.3846M6.64103 16.3846H12.7949M28.6923 7.15385H34.5897C35.581 7.15385 36.3846 7.95744 36.3846 8.94872V8.94872C36.3846 9.94 37.1882 10.7436 38.1795 10.7436V10.7436C39.1708 10.7436 39.9744 11.5472 39.9744 12.5385V14.3846C39.9744 15.4892 39.0789 16.3846 37.9744 16.3846H36.3846M30.2308 16.3846L31.3255 18.3551C32.0218 19.6085 33.7721 19.7435 34.6525 18.6117L36.3846 16.3846M30.2308 16.3846H36.3846" stroke="white" stroke-width="2"/>
<path d="M6.12817 6.12817H16.3846M6.12817 10.2307H12.282" stroke="white" stroke-width="2"/>
</svg>
