<svg width="24" height="23" viewBox="0 0 24 23" fill="none" xmlns="http://www.w3.org/2000/svg">
<path d="M5 18V21.5161M5 21.5161H3C1.89543 21.5161 1 20.6206 1 19.5161V3.59471C1 1.84712 3.08379 0.940079 4.36284 2.13092L21.3717 17.9668C22.6889 19.1931 21.8428 21.3993 20.0434 21.4303L15.069 21.5161M5 21.5161H7.62069M7.62069 21.5161V15.5M7.62069 21.5161H10.5M10.5 21.5161V21.5161C10.2587 20.4285 11.7934 19.9234 12.2452 20.9417L12.5 21.5161M10.5 21.5161H12.5M12.5 21.5161H15.069M15.069 21.5161V19" stroke="white" stroke-width="2"/>
</svg>
